# generated from PmQm by Jehee Lee
:FULLY-SPECIFIED
:DEGREES
550
root -2.69185 38.6384 -33.8906 179.224 43.2968 176.495
RightUpLeg -15.5166 -8.68054 -12.8335
RightLeg 4.73271 29.1904 -0.233584
RightFoot 0.39278 -1.97995 19.1293
RightToes -0.000541893 -0.000659172 -0.000493268
Spine 4.2438 -0.962417 -1.339
Spine1 8.50141 -1.80099 -4.00211
HEad -2.50302 -28.0863 4.53034
LeftShoulder1 -3.88251e-019 -0 -3.92111e-022
LeftArm -29.403 -7.29954 -81.8415
LeftForeArm 34.0491 1.03567 -1.92175
LeftHand -0.805604 -4.98365 9.30344
RightShoulder 7.45443e-017 -2.42657e-020 1.96277e-018
RightArm -24.799 -9.93466 73.5677
RightForeArm 25.0097 8.01385 7.95861
RightHand -1.14619 9.90997 -9.05679
LeftUpLeg -6.08306 5.53749 4.52876
LeftLeg 12.4338 -3.10684 -0.810034
LeftFoot -9.56466 0.149027 -5.91337
LeftToes 3.91355e-005 3.11907e-005 -4.10385e-006
551
root -1.86942 38.8033 -33.2785 -179.137 42.6477 178.102
RightUpLeg -15.6868 -6.55714 -9.93343
RightLeg 4.78098 26.5262 -1.05318
RightFoot 0.624653 -1.7197 16.3437
RightToes -0.000541893 -0.000659172 -0.000493268
Spine 4.69549 -0.967322 -0.745225
Spine1 9.40886 -1.84068 -2.52094
HEad -5.21168 -29.0856 4.88788
LeftShoulder1 -3.88251e-019 -0 -3.92111e-022
LeftArm -30.6863 -5.98429 -81.5767
LeftForeArm 33.478 0.911709 -1.62697
LeftHand -0.822844 -4.92265 9.54844
RightShoulder 7.45443e-017 -2.42657e-020 1.96277e-018
RightArm -24.4452 -8.92628 74.0029
RightForeArm 25.4324 7.67449 8.05089
RightHand -1.31551 10.3159 -10.0797
LeftUpLeg -5.53948 5.87281 7.32902
LeftLeg 10.1223 -4.06951 -0.609267
LeftFoot -8.22778 0.258256 -7.70118
LeftToes 3.91355e-005 3.11907e-005 -4.10385e-006
552
root -1.00963 38.8145 -32.5589 -176.577 41.9363 -179.235
RightUpLeg -17.3324 -3.44719 -6.51014
RightLeg 7.17272 22.6218 -0.575023
RightFoot 0.442668 -1.49595 14.4518
RightToes -0.000541893 -0.000659172 -0.000493268
Spine 5.3315 -0.936106 0.144687
Spine1 10.6853 -1.83719 -0.579182
HEad -9.12033 -29.4859 5.54879
LeftShoulder1 -3.88251e-019 -0 -3.92111e-022
LeftArm -31.3098 -4.7824 -81.7199
LeftForeArm 32.334 0.679841 -1.13195
LeftHand -0.82767 -4.72917 9.77397
RightShoulder 7.45443e-017 -2.42657e-020 1.96277e-018
RightArm -23.1294 -7.52104 74.0885
RightForeArm 25.0894 8.3892 8.28672
RightHand -1.29748 10.217 -10.0043
LeftUpLeg -6.54398 7.09534 11.0133
LeftLeg 10.1147 -5.83755 -0.375708
LeftFoot -7.81914 0.325234 -9.07745
LeftToes 3.91355e-005 3.11907e-005 -4.10385e-006
553
root -0.191495 38.7335 -31.7639 -173.879 40.125 -176.978
RightUpLeg -19.4489 -0.791171 -4.10153
RightLeg 9.50586 17.9096 0.605891
RightFoot 0.26735 -1.29539 12.7126
RightToes -0.000541893 -0.000659172 -0.000493268
Spine 5.96049 -1.15 1.13919
Spine1 11.9407 -2.36968 1.44044
HEad -13.8467 -29.8163 6.46067
LeftShoulder1 -3.88251e-019 -0 -3.92111e-022
LeftArm -31.12 -3.58475 -82.3109
LeftForeArm 31.0151 0.156509 -0.992746
LeftHand -0.811438 -4.8022 9.52506
RightShoulder 7.45443e-017 -2.42657e-020 1.96277e-018
RightArm -20.3464 -6.29047 73.5139
RightForeArm 22.0174 10.2685 8.88817
RightHand -1.31075 10.3181 -10.0465
LeftUpLeg -9.23053 7.72096 14.2581
LeftLeg 11.352 -7.45629 -0.369776
LeftFoot -7.68699 0.377556 -10.3669
LeftToes 3.91355e-005 3.11907e-005 -4.10385e-006
554
root 0.486869 38.6815 -30.9146 -171.701 36.9251 -175.825
RightUpLeg -21.4661 -0.0162117 -2.46056
RightLeg 10.4858 13.8391 1.1416
RightFoot 0.355727 -1.13296 11.0518
RightToes -0.000541893 -0.000659172 -0.000493268
Spine 6.62628 -1.61946 2.24061
Spine1 13.2569 -3.46619 3.43443
HEad -18.8741 -30.7002 7.90895
LeftShoulder1 -3.88251e-019 -0 -3.92111e-022
LeftArm -30.909 -3.32905 -83.0815
LeftForeArm 31.3239 -0.0885264 -1.23394
LeftHand -0.805341 -5.16532 9.15113
RightShoulder 7.45443e-017 -2.42657e-020 1.96277e-018
RightArm -16.7802 -5.26946 72.5714
RightForeArm 15.72 12.4312 9.17242
RightHand -1.59423 11.4423 -11.3374
LeftUpLeg -13.6302 6.84734 16.2707
LeftLeg 13.4544 -4.61267 -0.0391912
LeftFoot -5.64749 0.593638 -11.1176
LeftToes 3.91355e-005 3.11907e-005 -4.10385e-006
555
root 1.02404 38.6261 -30.07 -170.081 33.4354 -175.71
RightUpLeg -23.8501 0.344592 -1.58687
RightLeg 11.3649 10.0019 0.990424
RightFoot 0.712447 -1.04257 9.89776
RightToes -0.000541893 -0.000659172 -0.000493268
Spine 7.3606 -1.95305 3.18389
Spine1 14.7142 -4.33143 4.90738
HEad -23.8858 -32.0898 10.4181
LeftShoulder1 -3.88251e-019 -0 -3.92111e-022
LeftArm -30.6588 -4.27271 -84.0502
LeftForeArm 33.0072 -0.153523 -1.35376
LeftHand -0.812919 -5.34114 9.09154
RightShoulder 7.45443e-017 -2.42657e-020 1.96277e-018
RightArm -16.1291 -3.9487 71.6588
RightForeArm 11.0543 13.2374 8.98105
RightHand -1.82877 12.4629 -12.2341
LeftUpLeg -19.6861 6.02761 16.6164
LeftLeg 17.4081 3.83037 1.72494
LeftFoot -1.52136 0.748875 -8.60105
LeftToes 3.91355e-005 3.11907e-005 -4.10385e-006
556
root 1.43705 38.6096 -29.2743 -169.114 30.9647 -176.699
RightUpLeg -26.2304 0.34821 -1.61649
RightLeg 11.9005 7.45244 0.618768
RightFoot 1.47089 -0.996301 8.94785
RightToes -0.000541893 -0.000659172 -0.000493268
Spine 8.12766 -1.94214 3.4823
Spine1 16.2631 -4.46476 5.24501
HEad -28.5282 -33.2965 13.8575
LeftShoulder1 -3.88251e-019 -0 -3.92111e-022
LeftArm -29.9417 -5.36984 -85.0196
LeftForeArm 33.8317 -0.660697 -1.4673
LeftHand -0.822847 -5.22868 9.28965
RightShoulder 7.45443e-017 -2.42657e-020 1.96277e-018
RightArm -18.3974 -2.34166 71.0125
RightForeArm 9.97947 12.4899 8.59951
RightHand -1.77722 12.346 -11.9783
LeftUpLeg -25.4544 7.86221 13.805
LeftLeg 21.0042 11.4051 5.09407
LeftFoot 1.96093 0.366334 -3.19448
LeftToes 3.91355e-005 3.11907e-005 -4.10385e-006
557
root 1.72992 38.6805 -28.5216 -168.751 29.7086 -178.373
RightUpLeg -27.8396 -0.277762 -2.06827
RightLeg 11.0611 6.6382 0.195471
RightFoot 2.80174 -0.995296 8.16518
RightToes -0.000541893 -0.000659172 -0.000493268
Spine 9.01327 -1.72802 3.20447
Spine1 18.0606 -4.10319 4.67737
HEad -32.6504 -33.8088 17.4103
LeftShoulder1 -3.88251e-019 -0 -3.92111e-022
LeftArm -29.1065 -6.26426 -85.628
LeftForeArm 33.3496 -1.69442 -1.88334
LeftHand -0.822796 -5.14006 9.36221
RightShoulder 7.45443e-017 -2.42657e-020 1.96277e-018
RightArm -20.2958 -0.818193 70.813
RightForeArm 9.77083 11.4477 7.99821
RightHand -1.77616 12.0652 -12.1529
LeftUpLeg -29.1776 10.2071 8.8509
LeftLeg 21.4691 14.7228 6.59605
LeftFoot 2.50278 0.0892278 -0.845675
LeftToes 3.91355e-005 3.11907e-005 -4.10385e-006
558
root 1.92788 38.7151 -27.8489 -168.019 28.8572 -179.564
RightUpLeg -29.3674 -0.781045 -2.25379
RightLeg 9.72614 6.0577 -0.227404
RightFoot 4.35012 -1.04682 7.80088
RightToes -0.000541893 -0.000659172 -0.000493268
Spine 9.93506 -1.4772 2.98076
Spine1 19.9139 -3.6554 4.33701
HEad -36.2669 -33.7798 20.2461
LeftShoulder1 -3.88251e-019 -0 -3.92111e-022
LeftArm -28.6514 -7.36513 -86.1172
LeftForeArm 32.839 -3.05791 -2.24578
LeftHand -0.814074 -5.16498 9.24656
RightShoulder 7.45443e-017 -2.42657e-020 1.96277e-018
RightArm -20.9951 0.682805 70.6625
RightForeArm 9.35405 10.7818 7.47407
RightHand -1.91159 12.4622 -12.7636
LeftUpLeg -31.9556 12.8733 3.11196
LeftLeg 19.5932 10.5391 4.47831
LeftFoot 1.58488 0.461268 -4.18578
LeftToes 3.91355e-005 3.11907e-005 -4.10385e-006
559
root 2.05918 38.6329 -27.293 -166.145 27.844 -179.783
RightUpLeg -31.7512 -0.822596 -2.06844
RightLeg 8.94983 4.91078 -0.400979
RightFoot 5.58599 -1.09931 7.63455
RightToes -0.000541893 -0.000659172 -0.000493268
Spine 10.6332 -1.29985 3.13439
Spine1 21.2949 -3.39032 4.83976
HEad -39.17 -33.575 21.9172
LeftShoulder1 -3.88251e-019 -0 -3.92111e-022
LeftArm -28.4832 -8.38912 -86.8572
LeftForeArm 32.0347 -4.6305 -2.27478
LeftHand -0.840651 -5.32789 9.40099
RightShoulder 7.45443e-017 -2.42657e-020 1.96277e-018
RightArm -21.3515 2.23755 69.9438
RightForeArm 8.6056 10.1023 7.31861
RightHand -1.92923 12.9616 -12.545
LeftUpLeg -34.812 13.5899 -1.46216
LeftLeg 17.9025 1.00642 0.671396
LeftFoot 1.5991 0.72281 -6.44245
LeftToes 3.91355e-005 3.11907e-005 -4.10385e-006
